<svg width="24" height="24" viewBox="0 0 24 24" fill="none" xmlns="http://www.w3.org/2000/svg">
<path fill-rule="evenodd" clip-rule="evenodd" d="M5.61095 2.38286C7.28271 0.85714 9.5501 0 11.9143 0C14.2786 0 16.546 0.85714 18.2177 2.38286C19.8895 3.90858 20.8287 5.9779 20.8287 8.13559C20.8287 15.4576 11.9143 24 11.9143 24C11.9143 24 3 15.4576 3 8.13559C3 5.9779 3.93919 3.90858 5.61095 2.38286ZM15.6677 8.13519C15.6677 9.93246 14.0713 11.3894 12.102 11.3894C10.1327 11.3894 8.53623 9.93246 8.53623 8.13519C8.53623 6.33793 10.1327 4.88095 12.102 4.88095C14.0713 4.88095 15.6677 6.33793 15.6677 8.13519Z" fill="white"/>
</svg>
