<svg width="28" height="28" viewBox="0 0 28 28" fill="none" xmlns="http://www.w3.org/2000/svg">
<path fill-rule="evenodd" clip-rule="evenodd" d="M5.52561 0.589671C5.68405 0.643878 5.92843 0.770386 6.06874 0.860781C6.92857 1.43018 9.32272 4.48943 10.1057 6.01685C10.5537 6.88897 10.703 7.53517 10.5628 8.01418C10.4179 8.52933 10.1781 8.80048 9.10549 9.6636C8.67553 10.0115 8.27272 10.3685 8.20941 10.4634C8.04647 10.6984 7.91518 11.1593 7.91518 11.4847C7.91977 12.2394 8.40852 13.6086 9.0512 14.6615C9.54897 15.4794 10.4405 16.5277 11.3231 17.3321C12.3595 18.2811 13.2737 18.9273 14.3055 19.438C15.6316 20.0977 16.4417 20.2649 17.0346 19.9893C17.1839 19.9215 17.3423 19.8311 17.3921 19.7905C17.4373 19.7498 17.7859 19.325 18.166 18.8551C18.8992 17.9331 19.0666 17.784 19.569 17.6123C20.2071 17.3954 20.8588 17.4541 21.515 17.7885C22.0129 18.0461 23.0991 18.7195 23.8005 19.2075C24.7238 19.8537 26.697 21.4624 26.9641 21.7833C27.4347 22.3617 27.5162 23.1027 27.1993 23.9207C26.8644 24.7838 25.561 26.4016 24.6514 27.093C23.8277 27.7166 23.2439 27.956 22.4745 27.9922C21.8409 28.0238 21.5784 27.9696 20.7683 27.6352C14.4142 25.0188 9.34083 21.1145 5.31288 15.7505C3.20846 12.9488 1.60632 10.0432 0.51105 7.02908C-0.127033 5.27126 -0.158691 4.50755 0.366229 3.60829C0.592563 3.22873 1.55654 2.28877 2.25801 1.76461C3.42569 0.896953 3.96422 0.576098 4.39418 0.485745C4.68834 0.422466 5.19972 0.472169 5.52561 0.589671V0.589671Z" fill="white"/>
</svg>
